<?xml version="1.0" encoding="utf-8"?>
<!-- Generator: Adobe Illustrator 24.1.0, SVG Export Plug-In . SVG Version: 6.00 Build 0)  -->
<svg version="1.1" id="Layer_1" xmlns="http://www.w3.org/2000/svg" xmlns:xlink="http://www.w3.org/1999/xlink" x="0px" y="0px"
	 viewBox="0 0 1009.9 162.2" style="enable-background:new 0 0 1009.9 162.2;" xml:space="preserve">
<style type="text/css">
	.st0{clip-path:url(#SVGID_2_);fill:#1D1D1B;}
	.st1{fill:#1D1D1B;}
	.st2{clip-path:url(#SVGID_4_);fill:#1D1D1B;}
</style>
<g>
	<defs>
		<rect id="SVGID_1_" y="0" width="1009.1" height="162.2"/>
	</defs>
	<clipPath id="SVGID_2_">
		<use xlink:href="#SVGID_1_"  style="overflow:visible;"/>
	</clipPath>
	<path class="st0" d="M100.8,148.3h-28v-15h-0.6c-7.5,12-20.4,17.9-32.8,17.9C7.9,151.2,0,133.6,0,107V40.9h29.5v60.7
		c0,17.7,5.2,26.4,18.9,26.4c16,0,22.9-8.9,22.9-30.7V40.9h29.5V148.3z"/>
	<path class="st0" d="M188.4,95.8c-5,4.4-15.4,4.6-24.5,6.2c-9.1,1.9-17.4,5-17.4,15.8c0,11,8.5,13.7,18.1,13.7
		c23.1,0,23.9-18.3,23.9-24.7V95.8z M120.3,74c1.7-27.6,26.4-35.9,50.5-35.9c21.4,0,47.2,4.8,47.2,30.5v55.9c0,9.8,1,19.5,3.7,23.9
		h-29.9c-1-3.3-1.9-6.9-2.1-10.4c-9.3,9.8-23.1,13.3-36.2,13.3c-20.4,0-36.6-10.2-36.6-32.2c0-24.3,18.3-30.1,36.6-32.6
		c18.1-2.7,34.9-2.1,34.9-14.1c0-12.7-8.7-14.5-19.1-14.5c-11.2,0-18.5,4.6-19.5,16.2H120.3z"/>
</g>
<rect x="240.6" class="st1" width="29.5" height="148.3"/>
<path class="st1" d="M302.7,116.3h32.6v32h-32.6V116.3z M335.3,74.8h-32.6v-32h32.6V74.8z"/>
<g>
	<defs>
		<rect id="SVGID_3_" y="0" width="1009.1" height="162.2"/>
	</defs>
	<clipPath id="SVGID_4_">
		<use xlink:href="#SVGID_3_"  style="overflow:visible;"/>
	</clipPath>
	<path class="st2" d="M1009.2,80.5c-0.4,1.9-1.3,3.7-2.6,5.4c-1.3,1.7-3.3,3.1-5.8,4.2c-2.6,1.2-6,1.7-10.3,1.7
		c-1.8,0-3.7-0.2-5.6-0.7c-1.9-0.5-3.6-1.2-5.2-2.1c-1.6-1-2.9-2.2-3.9-3.7c-1-1.5-1.6-3.3-1.8-5.5h10.2c0.5,1.9,1.4,3.3,2.8,4
		c1.4,0.7,3,1.1,4.8,1.1c2.9,0,5-0.9,6.3-2.6c1.3-1.7,2-3.9,1.9-6.6v-4.9h-0.1c-1.1,2-2.7,3.4-4.7,4.4c-2,0.9-4.2,1.4-6.5,1.4
		c-2.8,0-5.2-0.5-7.2-1.5c-2-1-3.7-2.3-5-4c-1.3-1.7-2.3-3.7-2.9-6c-0.6-2.3-0.9-4.7-0.9-7.3c0-2.4,0.3-4.7,1-7
		c0.7-2.2,1.7-4.2,3.1-5.9c1.3-1.7,3-3.1,5-4.1s4.3-1.5,6.9-1.5c2.5,0,4.6,0.5,6.5,1.4c1.9,0.9,3.4,2.5,4.7,4.6h0.1v-5h9.7v34.9
		C1009.9,76.8,1009.7,78.5,1009.2,80.5 M995.2,68c1.1-0.6,2-1.3,2.7-2.3c0.7-1,1.3-2.1,1.6-3.3c0.4-1.2,0.5-2.5,0.5-3.9
		c0-1.5-0.1-3-0.4-4.4c-0.3-1.4-0.8-2.6-1.4-3.6c-0.7-1.1-1.6-1.9-2.7-2.5c-1.1-0.6-2.5-0.9-4.2-0.9c-1.4,0-2.7,0.3-3.7,0.9
		c-1,0.6-1.9,1.4-2.6,2.3c-0.7,1-1.2,2.1-1.5,3.4c-0.3,1.3-0.5,2.6-0.5,4c0,1.3,0.1,2.7,0.4,4c0.3,1.3,0.7,2.5,1.4,3.6
		c0.7,1.1,1.5,1.9,2.6,2.6c1.1,0.7,2.4,1,4,1C992.8,68.9,994.1,68.6,995.2,68 M942.7,40.4v5.2h0.2c1.3-2.2,3-3.7,5.1-4.7
		c2.1-1,4.2-1.5,6.4-1.5c2.7,0,5,0.4,6.8,1.1c1.8,0.7,3.1,1.8,4.2,3.1c1,1.3,1.7,2.9,2.1,4.8c0.4,1.9,0.6,4,0.6,6.3v23h-10.3V56.6
		c0-3.1-0.5-5.4-1.4-6.9c-1-1.5-2.7-2.3-5.1-2.3c-2.8,0-4.8,0.8-6.1,2.5c-1.3,1.7-1.9,4.4-1.9,8.2v19.6H933V40.4H942.7z M926.5,77.7
		h-10.3V40.4h10.3V77.7z M916.3,26.2h10.3v8.4h-10.3V26.2z M912.3,40.4v6.9h-7.5v18.5c0,1.7,0.3,2.9,0.9,3.5
		c0.6,0.6,1.7,0.9,3.5,0.9c0.6,0,1.1,0,1.7-0.1c0.5,0,1-0.1,1.5-0.2v7.9c-0.9,0.1-1.8,0.2-2.9,0.3c-1.1,0-2.1,0.1-3.1,0.1
		c-1.6,0-3.1-0.1-4.5-0.3c-1.4-0.2-2.7-0.6-3.8-1.3s-1.9-1.5-2.6-2.7s-0.9-2.7-0.9-4.5v-22h-6.2v-6.9h6.2V29.2h10.3v11.2H912.3z
		 M875.7,77.7v-5.2h-0.2c-1.3,2.2-3,3.7-5.1,4.7c-2.1,1-4.2,1.4-6.4,1.4c-2.7,0-5-0.4-6.8-1.1c-1.8-0.7-3.1-1.7-4.2-3.1
		c-1-1.3-1.7-2.9-2.1-4.8c-0.4-1.9-0.6-4-0.6-6.3v-23h10.3v21.1c0,3.1,0.5,5.4,1.4,6.9c1,1.5,2.7,2.3,5.1,2.3c2.8,0,4.8-0.8,6.1-2.5
		c1.3-1.7,1.9-4.4,1.9-8.2V40.4h10.3v37.3H875.7z M817.7,40.4v4.8h0.1c1.3-2,2.8-3.5,4.8-4.4c1.9-0.9,4-1.4,6.4-1.4
		c2.9,0,5.5,0.6,7.6,1.7c2.1,1.1,3.9,2.6,5.3,4.4c1.4,1.8,2.4,4,3.1,6.4c0.7,2.4,1,5,1,7.6c0,2.5-0.3,4.9-1,7.2
		c-0.7,2.3-1.7,4.4-3.1,6.1s-3.1,3.2-5.1,4.3c-2,1.1-4.4,1.6-7.2,1.6c-2.3,0-4.4-0.5-6.4-1.4c-2-0.9-3.6-2.3-4.8-4.2h-0.1v17.7H808
		V40.4H817.7z M831,70c1.1-0.7,2-1.6,2.7-2.6s1.2-2.3,1.5-3.8c0.3-1.4,0.4-2.9,0.4-4.4c0-1.5-0.2-3-0.5-4.4
		c-0.3-1.4-0.8-2.7-1.6-3.9c-0.7-1.1-1.6-2-2.8-2.7c-1.1-0.7-2.5-1-4.2-1c-1.7,0-3.1,0.3-4.2,1c-1.1,0.7-2,1.6-2.7,2.7
		c-0.7,1.1-1.2,2.4-1.5,3.8c-0.3,1.4-0.4,2.9-0.4,4.5c0,1.5,0.2,3,0.5,4.4c0.3,1.4,0.8,2.7,1.5,3.8c0.7,1.1,1.6,2,2.8,2.6
		c1.2,0.7,2.6,1,4.2,1C828.5,71,829.9,70.7,831,70 M754.1,40.4v5.1h0.1c1.3-1.9,3-3.4,4.9-4.5c1.9-1.1,4.1-1.6,6.5-1.6
		c2.4,0,4.5,0.5,6.5,1.4c1.9,0.9,3.4,2.5,4.4,4.8c1.1-1.6,2.6-3.1,4.5-4.3c1.9-1.3,4.2-1.9,6.8-1.9c2,0,3.8,0.2,5.5,0.7
		c1.7,0.5,3.1,1.3,4.3,2.3c1.2,1.1,2.1,2.4,2.8,4.2c0.7,1.7,1,3.8,1,6.2v25h-10.3V56.6c0-1.3,0-2.4-0.1-3.5
		c-0.1-1.1-0.4-2.1-0.8-2.9c-0.4-0.8-1.1-1.5-1.9-2c-0.8-0.5-2-0.7-3.4-0.7c-1.4,0-2.6,0.3-3.5,0.8c-0.9,0.6-1.6,1.3-2.1,2.2
		c-0.5,0.9-0.8,1.9-1,3c-0.2,1.1-0.3,2.3-0.3,3.4v20.8h-10.3V56.8c0-1.1,0-2.2-0.1-3.3c0-1.1-0.3-2.1-0.6-3c-0.4-0.9-1-1.6-1.8-2.2
		c-0.8-0.6-2.1-0.8-3.7-0.8c-0.5,0-1.1,0.1-1.9,0.3c-0.8,0.2-1.6,0.6-2.3,1.2s-1.4,1.5-1.9,2.6c-0.5,1.1-0.8,2.6-0.8,4.4v21.7h-10.3
		V40.4H754.1z M702.3,51c0.9-2.4,2.2-4.5,3.9-6.2c1.7-1.7,3.7-3,6.1-4c2.4-0.9,5-1.4,7.9-1.4c2.9,0,5.6,0.5,8,1.4
		c2.4,0.9,4.4,2.3,6.1,4c1.7,1.7,3,3.8,3.9,6.2c0.9,2.4,1.4,5.1,1.4,8.1s-0.5,5.7-1.4,8.1c-0.9,2.4-2.2,4.5-3.9,6.2
		c-1.7,1.7-3.7,3-6.1,3.9s-5,1.4-8,1.4c-2.9,0-5.6-0.5-7.9-1.4c-2.4-0.9-4.4-2.2-6.1-3.9c-1.7-1.7-3-3.8-3.9-6.2
		c-0.9-2.4-1.4-5.1-1.4-8.1S701.4,53.4,702.3,51 M711.6,63.5c0.3,1.4,0.8,2.7,1.5,3.8c0.7,1.1,1.6,2,2.8,2.7c1.2,0.7,2.6,1,4.3,1
		c1.7,0,3.2-0.3,4.4-1c1.2-0.7,2.1-1.6,2.8-2.7c0.7-1.1,1.2-2.4,1.5-3.8c0.3-1.4,0.4-2.9,0.4-4.4c0-1.5-0.1-3-0.4-4.4
		c-0.3-1.4-0.8-2.7-1.5-3.8s-1.6-2-2.8-2.7c-1.2-0.7-2.6-1-4.4-1c-1.7,0-3.2,0.3-4.3,1c-1.2,0.7-2.1,1.6-2.8,2.7
		c-0.7,1.1-1.2,2.4-1.5,3.8c-0.3,1.4-0.4,2.9-0.4,4.4C711.2,60.6,711.3,62,711.6,63.5 M680.2,47.1c-1.6,0-3,0.4-4.1,1.1
		c-1.1,0.7-2,1.7-2.7,2.9c-0.7,1.2-1.2,2.5-1.5,3.9c-0.3,1.4-0.4,2.8-0.4,4.2c0,1.3,0.1,2.7,0.4,4.1c0.3,1.4,0.8,2.7,1.4,3.8
		c0.6,1.1,1.5,2.1,2.6,2.8c1.1,0.7,2.5,1.1,4,1.1c2.5,0,4.3-0.7,5.7-2.1c1.3-1.4,2.2-3.2,2.5-5.5h9.9c-0.7,5-2.6,8.7-5.8,11.3
		c-3.2,2.6-7.2,3.9-12.2,3.9c-2.8,0-5.4-0.5-7.7-1.4c-2.3-0.9-4.3-2.3-6-3.9c-1.6-1.7-2.9-3.7-3.8-6c-0.9-2.3-1.4-4.9-1.4-7.7
		c0-2.9,0.4-5.6,1.3-8c0.8-2.5,2.1-4.6,3.7-6.4c1.6-1.8,3.6-3.2,6-4.2s5.1-1.5,8.1-1.5c2.2,0,4.3,0.3,6.4,0.9c2,0.6,3.9,1.5,5.5,2.6
		c1.6,1.2,2.9,2.6,3.9,4.4c1,1.8,1.6,3.8,1.7,6.2h-10C687.1,49.2,684.6,47.1,680.2,47.1 M614.7,68.8c1.5,1.5,3.8,2.2,6.6,2.2
		c2.1,0,3.9-0.5,5.3-1.6c1.5-1,2.4-2.1,2.7-3.3h9c-1.4,4.5-3.7,7.7-6.6,9.6c-3,1.9-6.6,2.9-10.8,2.9c-2.9,0-5.6-0.5-7.9-1.4
		c-2.4-0.9-4.4-2.3-6-4c-1.6-1.7-2.9-3.8-3.8-6.2c-0.9-2.4-1.3-5.1-1.3-7.9c0-2.8,0.5-5.4,1.4-7.8c0.9-2.4,2.2-4.5,3.9-6.2
		c1.7-1.8,3.7-3.1,6-4.2c2.3-1,4.9-1.5,7.8-1.5c3.2,0,5.9,0.6,8.3,1.8c2.4,1.2,4.3,2.9,5.8,4.9c1.5,2.1,2.6,4.4,3.3,7.1
		c0.7,2.6,0.9,5.4,0.7,8.3h-26.9C612.3,64.9,613.1,67.3,614.7,68.8 M626.3,49.1c-1.2-1.3-3.1-2-5.6-2c-1.6,0-3,0.3-4.1,0.8
		s-2,1.2-2.6,2.1c-0.6,0.8-1.1,1.7-1.4,2.6c-0.3,0.9-0.4,1.7-0.5,2.5h16.7C628.4,52.4,627.5,50.5,626.3,49.1 M578.3,77.7l-12.8-37.3
		h10.8l7.9,25.5h0.1l7.9-25.5h10.2l-12.6,37.3H578.3z M562.5,77.7h-10.3V40.4h10.3V77.7z M552.3,26.2h10.3v8.4h-10.3V26.2z
		 M548.3,40.4v6.9h-7.5v18.5c0,1.7,0.3,2.9,0.9,3.5c0.6,0.6,1.7,0.9,3.5,0.9c0.6,0,1.1,0,1.7-0.1c0.5,0,1-0.1,1.5-0.2v7.9
		c-0.9,0.1-1.8,0.2-2.9,0.3c-1.1,0-2.1,0.1-3.1,0.1c-1.6,0-3.1-0.1-4.5-0.3c-1.4-0.2-2.7-0.6-3.8-1.3c-1.1-0.6-1.9-1.5-2.6-2.7
		c-0.6-1.2-0.9-2.7-0.9-4.5v-22h-6.2v-6.9h6.2V29.2h10.3v11.2H548.3z M511.2,63.3c0,0.6-0.1,1.3-0.2,2.3c-0.1,1-0.4,1.9-1,2.9
		s-1.3,1.7-2.5,2.4c-1.1,0.7-2.7,1-4.7,1c-0.8,0-1.6-0.1-2.4-0.2c-0.8-0.1-1.4-0.4-2-0.8c-0.6-0.4-1-0.9-1.4-1.5
		c-0.3-0.6-0.5-1.4-0.5-2.3c0-1,0.2-1.8,0.5-2.4c0.3-0.6,0.8-1.1,1.3-1.6c0.6-0.4,1.2-0.7,2-1c0.7-0.2,1.5-0.4,2.3-0.6
		c0.8-0.1,1.6-0.3,2.5-0.4c0.8-0.1,1.6-0.2,2.3-0.4c0.7-0.1,1.4-0.3,2.1-0.5c0.6-0.2,1.2-0.5,1.6-0.9V63.3z M497.8,51.9
		c0.2-2,0.9-3.5,2-4.3c1.2-0.9,2.7-1.3,4.8-1.3c0.9,0,1.8,0.1,2.6,0.2c0.8,0.1,1.5,0.4,2.1,0.7c0.6,0.4,1.1,0.9,1.4,1.5
		c0.4,0.6,0.5,1.5,0.5,2.6c0,1.1-0.3,1.9-0.9,2.4c-0.7,0.6-1.6,1-2.7,1.3c-1.2,0.3-2.5,0.5-4,0.6c-1.5,0.1-3,0.3-4.5,0.6
		c-1.5,0.2-3.1,0.6-4.6,1c-1.5,0.4-2.9,1-4,1.8c-1.2,0.8-2.1,1.9-2.9,3.3c-0.7,1.4-1.1,3.1-1.1,5.2c0,1.9,0.3,3.6,1,5
		c0.6,1.4,1.6,2.6,2.7,3.5c1.2,0.9,2.5,1.6,4,2c1.5,0.4,3.2,0.7,5,0.7c2.3,0,4.6-0.3,6.8-1c2.2-0.7,4.1-1.9,5.8-3.5
		c0,0.6,0.1,1.2,0.3,1.8c0.1,0.6,0.3,1.2,0.5,1.8h10.4c-0.5-0.8-0.8-1.9-1-3.5c-0.2-1.5-0.3-3.2-0.3-4.8V50c0-2.3-0.5-4.1-1.5-5.5
		s-2.3-2.4-3.9-3.2c-1.6-0.8-3.3-1.3-5.3-1.6c-1.9-0.3-3.8-0.4-5.7-0.4c-2.1,0-4.1,0.2-6.2,0.6c-2,0.4-3.9,1.1-5.5,2.1
		c-1.6,1-3,2.2-4,3.8c-1.1,1.6-1.7,3.6-1.8,6H497.8z M459.4,68.8c1.5,1.5,3.8,2.2,6.6,2.2c2.1,0,3.9-0.5,5.3-1.6
		c1.5-1,2.4-2.1,2.7-3.3h9c-1.4,4.5-3.7,7.7-6.6,9.6c-3,1.9-6.6,2.9-10.8,2.9c-2.9,0-5.6-0.5-7.9-1.4c-2.4-0.9-4.4-2.3-6-4
		c-1.6-1.7-2.9-3.8-3.8-6.2c-0.9-2.4-1.3-5.1-1.3-7.9c0-2.8,0.5-5.4,1.4-7.8c0.9-2.4,2.2-4.5,3.9-6.2c1.7-1.8,3.7-3.1,6-4.2
		c2.3-1,4.9-1.5,7.8-1.5c3.2,0,5.9,0.6,8.3,1.8c2.4,1.2,4.3,2.9,5.8,4.9c1.5,2.1,2.6,4.4,3.3,7.1c0.7,2.6,0.9,5.4,0.7,8.3h-26.9
		C457,64.9,457.9,67.3,459.4,68.8 M471,49.1c-1.2-1.3-3.1-2-5.6-2c-1.6,0-3,0.3-4.1,0.8c-1.1,0.6-2,1.2-2.6,2.1
		c-0.6,0.8-1.1,1.7-1.4,2.6c-0.3,0.9-0.4,1.7-0.5,2.5h16.7C473.1,52.4,472.2,50.5,471,49.1 M431.4,40.4v6.9h0.1
		c0.5-1.2,1.1-2.2,1.9-3.2c0.8-1,1.8-1.8,2.8-2.5c1.1-0.7,2.2-1.2,3.4-1.6c1.2-0.4,2.5-0.6,3.8-0.6c0.7,0,1.4,0.1,2.2,0.4v9.5
		c-0.5-0.1-1.1-0.2-1.7-0.3c-0.7-0.1-1.3-0.1-1.9-0.1c-1.9,0-3.5,0.3-4.8,0.9c-1.3,0.6-2.3,1.5-3.1,2.6c-0.8,1.1-1.4,2.3-1.7,3.8
		c-0.3,1.4-0.5,3-0.5,4.7v16.8h-10.3V40.4H431.4z M399.5,47.1c-1.6,0-3,0.4-4.1,1.1c-1.1,0.7-2,1.7-2.7,2.9
		c-0.7,1.2-1.2,2.5-1.5,3.9c-0.3,1.4-0.4,2.8-0.4,4.2c0,1.3,0.1,2.7,0.4,4.1c0.3,1.4,0.8,2.7,1.4,3.8c0.6,1.1,1.5,2.1,2.6,2.8
		c1.1,0.7,2.5,1.1,4,1.1c2.5,0,4.3-0.7,5.7-2.1c1.3-1.4,2.2-3.2,2.5-5.5h9.9c-0.7,5-2.6,8.7-5.8,11.3c-3.2,2.6-7.2,3.9-12.2,3.9
		c-2.8,0-5.4-0.5-7.7-1.4c-2.3-0.9-4.3-2.3-6-3.9c-1.6-1.7-2.9-3.7-3.8-6c-0.9-2.3-1.4-4.9-1.4-7.7c0-2.9,0.4-5.6,1.3-8
		c0.8-2.5,2.1-4.6,3.7-6.4c1.6-1.8,3.6-3.2,6-4.2c2.4-1,5.1-1.5,8.1-1.5c2.2,0,4.3,0.3,6.4,0.9c2,0.6,3.9,1.5,5.5,2.6
		c1.6,1.2,2.9,2.6,3.9,4.4c1,1.8,1.6,3.8,1.7,6.2h-10C406.4,49.2,403.9,47.1,399.5,47.1"/>
	<path class="st2" d="M618.2,140.9c1.5,1.5,3.8,2.2,6.6,2.2c2.1,0,3.9-0.5,5.3-1.6c1.5-1,2.4-2.1,2.7-3.3h9
		c-1.4,4.5-3.7,7.7-6.6,9.6c-3,1.9-6.6,2.9-10.8,2.9c-2.9,0-5.6-0.5-7.9-1.4c-2.4-0.9-4.4-2.3-6-4c-1.6-1.7-2.9-3.8-3.8-6.2
		c-0.9-2.4-1.3-5.1-1.3-7.9c0-2.8,0.5-5.4,1.4-7.8c0.9-2.4,2.2-4.5,3.9-6.2c1.7-1.8,3.7-3.1,6-4.2c2.3-1,4.9-1.5,7.8-1.5
		c3.2,0,5.9,0.6,8.3,1.8c2.4,1.2,4.3,2.9,5.8,4.9c1.5,2.1,2.6,4.4,3.3,7.1c0.7,2.6,0.9,5.4,0.7,8.3h-26.9
		C615.8,137,616.7,139.4,618.2,140.9 M629.8,121.3c-1.2-1.3-3.1-2-5.6-2c-1.6,0-3,0.3-4.1,0.8c-1.1,0.6-2,1.2-2.6,2.1
		c-0.6,0.8-1.1,1.7-1.4,2.6c-0.3,0.9-0.4,1.7-0.5,2.5h16.7C631.9,124.6,631,122.6,629.8,121.3 M604.3,112.5v6.9h-7.5v18.5
		c0,1.7,0.3,2.9,0.9,3.5c0.6,0.6,1.7,0.9,3.5,0.9c0.6,0,1.1,0,1.7-0.1c0.5,0,1-0.1,1.5-0.2v7.9c-0.9,0.1-1.8,0.2-2.9,0.3
		c-1.1,0-2.1,0.1-3.1,0.1c-1.6,0-3.1-0.1-4.5-0.3c-1.4-0.2-2.7-0.6-3.8-1.3c-1.1-0.6-1.9-1.5-2.6-2.7c-0.6-1.2-0.9-2.7-0.9-4.5v-22
		h-6.2v-6.9h6.2v-11.2h10.3v11.2H604.3z M567.7,149.9v-5.2h-0.2c-1.3,2.2-3,3.7-5.1,4.7c-2.1,1-4.2,1.4-6.4,1.4
		c-2.7,0-5-0.4-6.8-1.1s-3.1-1.7-4.2-3.1c-1-1.3-1.7-2.9-2.1-4.8c-0.4-1.9-0.6-4-0.6-6.3v-23h10.3v21.1c0,3.1,0.5,5.4,1.4,6.9
		c1,1.5,2.7,2.3,5.1,2.3c2.8,0,4.8-0.8,6.1-2.5c1.3-1.7,1.9-4.4,1.9-8.2v-19.6h10.3v37.3H567.7z M539.3,112.5v6.9h-7.5v18.5
		c0,1.7,0.3,2.9,0.9,3.5c0.6,0.6,1.7,0.9,3.5,0.9c0.6,0,1.1,0,1.7-0.1c0.5,0,1-0.1,1.5-0.2v7.9c-0.9,0.1-1.8,0.2-2.9,0.3
		c-1.1,0-2.1,0.1-3.1,0.1c-1.6,0-3.1-0.1-4.5-0.3c-1.4-0.2-2.7-0.6-3.8-1.3c-1.1-0.6-1.9-1.5-2.6-2.7c-0.6-1.2-0.9-2.7-0.9-4.5v-22
		h-6.2v-6.9h6.2v-11.2h10.3v11.2H539.3z M512.3,149.9h-10.3v-37.3h10.3V149.9z M502.1,98.3h10.3v8.4h-10.3V98.3z M498.1,112.5v6.9
		h-7.5v18.5c0,1.7,0.3,2.9,0.9,3.5c0.6,0.6,1.7,0.9,3.5,0.9c0.6,0,1.1,0,1.7-0.1c0.5,0,1-0.1,1.5-0.2v7.9c-0.9,0.1-1.8,0.2-2.9,0.3
		c-1.1,0-2.1,0.1-3.1,0.1c-1.6,0-3.1-0.1-4.5-0.3c-1.4-0.2-2.7-0.6-3.8-1.3c-1.1-0.6-1.9-1.5-2.6-2.7c-0.6-1.2-0.9-2.7-0.9-4.5v-22
		h-6.2v-6.9h6.2v-11.2h10.3v11.2H498.1z M448.8,140.6c0.5,0.8,1,1.4,1.8,1.9c0.7,0.5,1.6,0.9,2.5,1.1c0.9,0.2,1.9,0.4,2.9,0.4
		c0.7,0,1.5-0.1,2.3-0.3c0.8-0.2,1.5-0.4,2.2-0.8c0.7-0.4,1.2-0.8,1.6-1.4c0.4-0.6,0.6-1.4,0.6-2.3c0-1.5-1-2.7-3.1-3.5
		c-2-0.8-4.9-1.5-8.6-2.3c-1.5-0.3-2.9-0.7-4.4-1.2c-1.4-0.5-2.7-1.1-3.8-1.8c-1.1-0.7-2-1.7-2.7-2.8c-0.7-1.1-1-2.5-1-4.2
		c0-2.4,0.5-4.4,1.4-5.9c0.9-1.5,2.2-2.8,3.7-3.6c1.5-0.9,3.3-1.5,5.2-1.9c1.9-0.4,3.9-0.5,5.9-0.5c2,0,4,0.2,5.9,0.6
		c1.9,0.4,3.6,1,5.1,1.9c1.5,0.9,2.7,2.1,3.7,3.6c1,1.5,1.6,3.4,1.8,5.7h-9.7c-0.1-2-0.9-3.3-2.2-4c-1.3-0.7-2.9-1-4.8-1
		c-0.6,0-1.2,0-1.9,0.1c-0.7,0.1-1.3,0.2-1.8,0.5c-0.6,0.2-1,0.6-1.4,1c-0.4,0.5-0.6,1.1-0.6,1.8c0,0.9,0.3,1.7,1,2.2
		c0.7,0.6,1.6,1,2.6,1.4c1.1,0.4,2.3,0.7,3.7,1c1.4,0.3,2.8,0.6,4.3,0.9c1.5,0.3,2.9,0.7,4.4,1.2c1.4,0.5,2.7,1.1,3.8,1.9
		c1.1,0.8,2,1.8,2.7,3c0.7,1.2,1,2.6,1,4.4c0,2.5-0.5,4.5-1.5,6.2c-1,1.7-2.3,3-3.9,4c-1.6,1-3.4,1.7-5.5,2.1
		c-2,0.4-4.1,0.6-6.2,0.6c-2.2,0-4.3-0.2-6.4-0.6c-2.1-0.4-3.9-1.2-5.5-2.2c-1.6-1-2.9-2.3-4-4c-1-1.7-1.6-3.7-1.7-6.2h9.7
		C448.1,138.8,448.3,139.8,448.8,140.6 M408.7,112.5v5.2h0.2c1.3-2.2,3-3.7,5.1-4.7c2.1-1,4.2-1.5,6.4-1.5c2.7,0,5,0.4,6.8,1.1
		c1.8,0.7,3.1,1.8,4.2,3.1c1,1.3,1.7,2.9,2.1,4.8c0.4,1.9,0.6,4,0.6,6.3v23h-10.3v-21.1c0-3.1-0.5-5.4-1.4-6.9
		c-1-1.5-2.7-2.3-5.1-2.3c-2.8,0-4.8,0.8-6.1,2.5c-1.3,1.7-1.9,4.4-1.9,8.2v19.6H399v-37.3H408.7z M392.5,149.9h-10.3v-37.3h10.3
		V149.9z M382.3,98.3h10.3v8.4h-10.3V98.3z"/>
</g>
</svg>
